<?xml version="1.0" standalone="no"?>
<!DOCTYPE svg PUBLIC "-//W3C//DTD SVG 20010904//EN"
 "http://www.w3.org/TR/2001/REC-SVG-20010904/DTD/svg10.dtd">
<svg version="1.0" xmlns="http://www.w3.org/2000/svg"
 width="700.000000pt" height="700.000000pt" viewBox="0 0 700.000000 700.000000"
 preserveAspectRatio="xMidYMid meet">
<metadata>
Created by potrace 1.14, written by Peter Selinger 2001-2017
</metadata>
<g transform="translate(0.000000,700.000000) scale(0.100000,-0.100000)"
fill="#000000" stroke="none">
<path d="M1269 6996 c-2 -2 -29 -7 -59 -10 -286 -34 -584 -182 -799 -397 -209
-209 -315 -415 -397 -769 -5 -19 -9 -1050 -10 -2290 -2 -2178 -2 -2259 17
-2363 56 -323 216 -608 460 -822 180 -158 386 -260 640 -317 l104 -23 2275 0
2275 0 104 23 c139 31 256 74 370 133 404 211 682 612 739 1064 7 52 10 869
10 2300 l0 2220 -23 111 c-30 146 -57 227 -116 351 -54 111 -104 192 -176 281
-54 66 -152 163 -203 201 -19 14 -37 29 -40 32 -11 14 -150 99 -215 131 -105
53 -253 103 -360 122 -16 3 -41 9 -55 13 -25 8 -4533 17 -4541 9z"/>
</g>
</svg>
